<svg width="124" height="142" viewBox="0 0 124 142" fill="none" xmlns="http://www.w3.org/2000/svg">
<path d="M110.714 62.125H104.071V42.1562C104.071 18.9148 85.1946 0 62 0C38.8054 0 19.9286 18.9148 19.9286 42.1562V62.125H13.2857C5.95089 62.125 0 68.0879 0 75.4375V128.688C0 136.037 5.95089 142 13.2857 142H110.714C118.049 142 124 136.037 124 128.688V75.4375C124 68.0879 118.049 62.125 110.714 62.125ZM81.9286 62.125H42.0714V42.1562C42.0714 31.1457 51.0116 22.1875 62 22.1875C72.9884 22.1875 81.9286 31.1457 81.9286 42.1562V62.125Z" fill="url(#paint0_linear_38_115)"/>
<defs>
<linearGradient id="paint0_linear_38_115" x1="-164" y1="189" x2="117" y2="35.5" gradientUnits="userSpaceOnUse">
<stop stop-color="#FF5C00"/>
<stop offset="1" stop-color="#B122F4"/>
</linearGradient>
</defs>
</svg>
