<svg width="156" height="211" viewBox="0 0 156 211" fill="none" xmlns="http://www.w3.org/2000/svg">
<path d="M10 93.3409C32.8101 65.3884 57.1434 38.8756 82.2374 12.9823C82.6164 12.5912 84.2132 10.7727 85.2077 10.1337C86.124 9.54498 85.2121 11.0862 85.1753 11.1666C82.3549 17.3274 80.1715 23.7327 78.1978 30.2152C74.685 41.753 71.4225 53.3909 68.2933 65.0398C65.9384 73.8058 63.262 82.8859 63.3464 92.0579C63.3521 92.6767 63.3222 97.7181 65.3878 96.233C68.3265 94.12 71.0558 90.2126 73.3806 87.6546C79.7378 80.6593 86.2488 73.8211 92.9953 67.2034C104.979 55.4481 117.544 44.3411 130.443 33.6183C134.835 29.9669 139.262 26.3571 143.695 22.7567C144.41 22.176 146.179 20.3089 145.985 21.2128C145.842 21.8782 145.312 22.7461 145.035 23.2242C142.728 27.2045 140.145 31.0204 137.798 34.9774C127.758 51.9049 118.88 69.5679 110.839 87.535C102.191 106.855 94.2262 126.501 86.3202 146.138C80.5069 160.576 74.6081 175.03 69.665 189.802C69.5303 190.204 65.7917 199.656 67.1592 200" stroke="url(#paint0_linear_38_45)" stroke-width="20" stroke-linecap="round"/>
<defs>
<linearGradient id="paint0_linear_38_45" x1="78" y1="10" x2="78" y2="200" gradientUnits="userSpaceOnUse">
<stop stop-color="#B518FF"/>
<stop offset="1" stop-color="#DE3842"/>
</linearGradient>
</defs>
</svg>
