<svg width="124" height="111" viewBox="0 0 124 111" fill="none" xmlns="http://www.w3.org/2000/svg">
<path d="M91.1701 0.000211945C73.0868 0.0647953 58.5556 14.962 58.5556 33.0453V48.2224H10.3333C4.62847 48.2224 0 52.8509 0 58.5558V99.8891C0 105.594 4.62847 110.222 10.3333 110.222H86.1111C91.816 110.222 96.4444 105.594 96.4444 99.8891V58.5558C96.4444 52.8509 91.816 48.2224 86.1111 48.2224H75.7778V32.9162C75.7778 24.3912 82.6021 17.3085 91.1271 17.2224C99.7382 17.1363 106.778 24.1329 106.778 32.7224V49.9447C106.778 52.8078 109.081 55.1113 111.944 55.1113H118.833C121.697 55.1113 124 52.8078 124 49.9447V32.7224C124 14.6391 109.253 -0.0643714 91.1701 0.000211945Z" fill="url(#paint0_linear_38_119)"/>
<defs>
<linearGradient id="paint0_linear_38_119" x1="146.5" y1="-1.52785e-05" x2="-96" y2="168" gradientUnits="userSpaceOnUse">
<stop stop-color="#B122F4"/>
<stop offset="1" stop-color="#FF5C00"/>
</linearGradient>
</defs>
</svg>
