<svg viewBox="0 0 50 50" xml:space="preserve" xmlns="http://www.w3.org/2000/svg"><path fill="none" d="M0 0h50v50H0z"></path><path d="M25 10.062c0-3.59-2.913-6.5-6.5-6.5-3.593 0-6.5 2.91-6.5 6.5 0 1.007.23 1.955.642 2.8" fill="none" stroke="#b122f4" stroke-linejoin="round" stroke-miterlimit="10" stroke-width="2" class="stroke-000000"></path><path d="M45.375 24.029h-1.627c-.848 0-1.25-.377-1.312-.762-.443-2.789-2.255-6.413-6.809-8.003-.044-2.523.519-4.343 1.615-7.304-2.547.639-5.361 2.026-7.027 5.7a25.17 25.17 0 0 0-5.978-.707c-5.485 0-9.622 1.664-12.934 4.242-2.991 2.329-4.87 6.229-4.647 11.549.168 4.013 2.963 7.075 5.107 8.79.309.244.925.635.603 1.632-.323.995-.903 2.384-.903 2.384a1.721 1.721 0 0 0 .996 2.218l3.218 1.216a1.72 1.72 0 0 0 2.218-.996s.428-1.115.776-2.045c.661-1.748 1.065-.33 5.566-.33 4.677 0 5.149-.912 5.638.52.313.935.703 1.855.703 1.855a1.718 1.718 0 0 0 2.219.996l3.214-1.216a1.72 1.72 0 0 0 .999-2.218l-.516-1.365s-.525-.9.6-1.511c2.242-1.22 3.932-3.071 5.028-5.357.233-.49.577-1.156 1.626-1.156h1.627c.896 0 1.625-.729 1.625-1.624v-4.879a1.63 1.63 0 0 0-1.625-1.629z" fill="none" stroke="#b122f4" stroke-linecap="round" stroke-linejoin="round" stroke-miterlimit="10" stroke-width="2" class="stroke-000000"></path><path d="M36.48 26.922a1.914 1.914 0 1 1-.004-3.824 1.914 1.914 0 0 1 .004 3.824z" fill="#b122f4" class="fill-000000"></path><path d="M6.826 23.096S3 22.22 3 18.769c0-1.415.714-2.717 1.963-3.256" fill="none" stroke="#b122f4" stroke-linecap="round" stroke-linejoin="round" stroke-miterlimit="10" stroke-width="2" class="stroke-000000"></path></svg>